<svg id="exportSVG" visibility="visible" xmlns="http://www.w3.org/2000/svg" xmlns:xlink="http://www.w3.org/1999/xlink" version="1.1" data-info="draw.ninja" data-name="hangglider" viewBox="0 0 32 32" width="32" height="32" style="position: fixed; top: 0px; left: 0px;"><defs id="defsExport"><filter id="filter0"><feGaussianBlur stdDeviation="0"></feGaussianBlur></filter><pattern id="patternImage" patternUnits="userSpaceOnUse" x="0" y="0" width="1" height="1" data-x="0" data-y="0" data-width="1" data-height="1" data-multx="1" data-multy="1" patternTransform="matrix(1,0,0,1,0,0)" data-transs="0" data-transf="0" data-source="patternImage" data-draw="1" fill="#B3B3B3" fill-opacity="1"></pattern><pattern id="pattern0" patternUnits="userSpaceOnUse" x="0" y="0" width="10" height="10" data-x="0" data-y="0" data-width="10" data-height="10" data-multx="1" data-multy="1" stroke="none" patternTransform="matrix(1,0,0,1,0,0)" data-transs="0" data-transf="0" data-source="Pattern 0" data-draw="1" fill="#B3B3B3" fill-opacity="1"><path transform="matrix(1,0,0,1,0,0)" d="M0 0 L5 0 L5 5 L0 5 L0 0 Z"></path></pattern><pattern id="pattern1" patternUnits="userSpaceOnUse" x="0" y="0" width="10" height="10" data-x="0" data-y="0" data-width="10" data-height="10" data-multx="1" data-multy="1" stroke="none" patternTransform="matrix(1,0,0,1,0,0)" data-transs="0" data-transf="0" data-source="Pattern 1" data-draw="1" fill="#B3B3B3" fill-opacity="1"><path transform="matrix(1,0,0,1,0,0)" d="M0 5 L5 0 L10 5 L5 10 L0 5 Z"></path></pattern><pattern id="pattern2" patternUnits="userSpaceOnUse" x="0" y="0" width="10" height="10" data-x="0" data-y="0" data-width="10" data-height="10" data-multx="1" data-multy="1" stroke="none" patternTransform="matrix(1,0,0,1,0,0)" data-transs="0" data-transf="0" data-source="Pattern 2" data-draw="1" fill="#B3B3B3" fill-opacity="1"><path transform="matrix(1,0,0,1,0,0)" d="M0 9 L5 1 L10 9 L0 9 Z"></path></pattern><pattern id="pattern3" patternUnits="userSpaceOnUse" x="0" y="0" width="10" height="10" data-x="0" data-y="0" data-width="10" data-height="10" data-multx="1" data-multy="1" stroke="none" patternTransform="matrix(1,0,0,1,0,0)" data-transs="0" data-transf="0" data-source="Pattern 3" data-draw="1" fill="#B3B3B3" fill-opacity="1"><path transform="matrix(1,0,0,1,0,0)" d="M0 5 C0 2.25 2.25 0 5 0 C7.75 0 10 2.25 10 5 C10 7.75 7.75 10 5 10 C2.25 10 0 7.75 0 5 Z"></path></pattern><pattern id="pattern4" patternUnits="userSpaceOnUse" x="0" y="0" width="10" height="10" data-x="0" data-y="0" data-width="10" data-height="10" data-multx="1" data-multy="1" stroke="none" patternTransform="matrix(1,0,0,1,0,0)" data-transs="0" data-transf="0" data-source="Pattern 4" data-draw="1" fill="#B3B3B3" fill-opacity="1"><path transform="matrix(1,0,0,1,0,0)" d="M0 5 L4 4 L5 0 L6 4 L10 5 L6 6 L5 10 L4 6 L0 5 Z"></path></pattern><pattern id="pattern5" patternUnits="userSpaceOnUse" x="0" y="0" width="10" height="10" data-x="0" data-y="0" data-width="10" data-height="10" data-multx="1" data-multy="1" stroke="none" patternTransform="matrix(1,0,0,1,0,0)" data-transs="0" data-transf="0" data-source="Pattern 5" data-draw="1" fill="#B3B3B3" fill-opacity="1"><path transform="matrix(1,0,0,1,0,0)" d="M5 10 C-5 2.75 3 -1.75 5 1 C7 -1.75 15 2.75 5 10 Z"></path></pattern><pattern id="pattern6" patternUnits="userSpaceOnUse" x="0" y="0" width="10" height="10" data-x="0" data-y="0" data-width="10" data-height="10" data-multx="1" data-multy="1" stroke="none" patternTransform="matrix(1,0,0,1,0,0)" data-transs="0" data-transf="0" data-source="Pattern 6" data-draw="1" fill="#B3B3B3" fill-opacity="1"><path transform="matrix(1,0,0,1,0,0)" d="M3 0 L7 0 L7 10 L3 10 L3 0 Z"></path></pattern><pattern id="pattern7" patternUnits="userSpaceOnUse" x="0" y="0" width="10" height="10" data-x="0" data-y="0" data-width="10" data-height="10" data-multx="1" data-multy="1" stroke="none" patternTransform="matrix(1,0,0,1,0,0)" data-transs="0" data-transf="0" data-source="Pattern 7" data-draw="1" fill="#B3B3B3" fill-opacity="1"><path transform="matrix(1,0,0,1,0,0)" d="M10 3 L10 7 L0 7 L0 3 L10 3 Z"></path></pattern><pattern id="pattern8" patternUnits="userSpaceOnUse" x="0" y="0" width="10" height="10" data-x="0" data-y="0" data-width="10" data-height="10" data-multx="1" data-multy="1" stroke="none" patternTransform="matrix(1,0,0,1,0,0)" data-transs="0" data-transf="0" data-source="Pattern 8" data-draw="1" fill="#B3B3B3" fill-opacity="1"><path transform="matrix(1,0,0,1,0,0)" d="M0 10 L3 3 L10 0 L7 7 L0 10 Z"></path></pattern><pattern id="pattern9" patternUnits="userSpaceOnUse" x="0" y="0" width="10" height="10" data-x="0" data-y="0" data-width="10" data-height="10" data-multx="1" data-multy="1" stroke="none" patternTransform="matrix(1,0,0,1,0,0)" data-transs="0" data-transf="0" data-source="Pattern 9" data-draw="1" fill="#B3B3B3" fill-opacity="1"><path transform="matrix(1,0,0,1,0,0)" d="M0 4 L10 4 L10 6 L0 6 L0 4 Z M4 10 L4 0 L6 0 L6 10 L4 10 Z"></path></pattern><linearGradient id="linearSystem" gradientUnits="objectBoundingBox" x1="0%" y1="50%" x2="100%" y2="50%" spreadMethod="pad"><stop offset="50%" stop-color="#D0D0D0" stop-opacity="1"></stop><stop offset="100%" stop-color="transparent" stop-opacity="1"></stop></linearGradient><linearGradient id="linearSystem1" gradientUnits="objectBoundingBox" x1="0%" y1="50%" x2="100%" y2="50%" spreadMethod="pad"><stop offset="30%" stop-color="#D0D0D0" stop-opacity="1"></stop><stop offset="100%" stop-color="transparent" stop-opacity="1"></stop></linearGradient><linearGradient id="linearSystem2" gradientUnits="objectBoundingBox" x1="0%" y1="50%" x2="50%" y2="50%" spreadMethod="repeat"><stop offset="30%" stop-color="#D0D0D0" stop-opacity="1"></stop><stop offset="100%" stop-color="transparent" stop-opacity="1"></stop></linearGradient><linearGradient id="linearSystem3" gradientUnits="objectBoundingBox" x1="0%" y1="50%" x2="50%" y2="50%" spreadMethod="reflect"><stop offset="30%" stop-color="#D0D0D0" stop-opacity="1"></stop><stop offset="100%" stop-color="transparent" stop-opacity="1"></stop></linearGradient><radialGradient id="radialSystem" gradientUnits="objectBoundingBox" r="0.5" cx="0.5" fx="0.5" cy="0.5" fy="0.5" spreadMethod="pad"><stop offset="50%" stop-color="#D0D0D0" stop-opacity="1"></stop><stop offset="100%" stop-color="transparent" stop-opacity="1"></stop></radialGradient><pattern id="patternSystem" patternUnits="userSpaceOnUse" x="0" y="0" width="6" height="8"><path stroke="#D0D0D0" stroke-width="5" fill="none" d="M0 0 L0 10"></path></pattern><linearGradient id="linear0" gradientUnits="objectBoundingBox" x1="0%" y1="50%" x2="100%" y2="50%" spreadMethod="pad"><stop offset="0%" stop-color="#FF8000" stop-opacity="1"></stop><stop offset="100%" stop-color="#FFFF00" stop-opacity="1"></stop></linearGradient><linearGradient id="linear1" gradientUnits="objectBoundingBox" x1="0%" y1="50%" x2="100%" y2="50%" spreadMethod="pad"><stop offset="0%" stop-color="#FFFF00" stop-opacity="1"></stop><stop offset="100%" stop-color="#FF8000" stop-opacity="1"></stop></linearGradient><linearGradient id="linearImport" gradientUnits="objectBoundingBox" x1="0%" y1="50%" x2="100%" y2="50%" spreadMethod="pad"><stop offset="0%" stop-color="#FFFFFF" stop-opacity="0.1"></stop><stop offset="100%" stop-color="#000000" stop-opacity="0.1"></stop></linearGradient><radialGradient id="radial0" gradientUnits="objectBoundingBox" r="0.5" cx="0.5" fx="0.5" cy="0.5" fy="0.5" spreadMethod="pad"><stop offset="0%" stop-color="#FF8000" stop-opacity="1"></stop><stop offset="100%" stop-color="#FFFF00" stop-opacity="1"></stop></radialGradient><radialGradient id="radial1" gradientUnits="objectBoundingBox" r="0.5" cx="0.5" fx="0.5" cy="0.5" fy="0.5" spreadMethod="pad"><stop offset="0%" stop-color="#FFFF00" stop-opacity="1"></stop><stop offset="100%" stop-color="#FF8000" stop-opacity="1"></stop></radialGradient><radialGradient id="radialImport" gradientUnits="objectBoundingBox" r="0.5" cx="0.5" fx="0.5" cy="0.5" fy="0.5" spreadMethod="pad"><stop offset="0%" stop-color="#FFFFFF" stop-opacity="0.1"></stop><stop offset="100%" stop-color="#000000" stop-opacity="0.1"></stop></radialGradient></defs><rect id="pageExport" x="0" y="0" width="32" height="32" fill="none" fill-opacity="0" stroke="none" stroke-width="0"></rect><g id="objectsExport" visibility="visible"><path id="path5" visibility="visible" stroke="#000000" stroke-width="2" stroke-opacity="1" stroke-linecap="round" stroke-linejoin="round" stroke-dasharray="none" marker-start="none" marker-end="none" fill="#000000" fill-rule="evenodd" fill-opacity="1" data-name="curve" data-title="curve" deg="0" data-sw="2" data-grad="0" data-group="0" data-edit="1" filter="none" d="M29.109 14.721 L3.556 20.278 L21.332 4.943 L19.112 12.054 L29.109 14.721 Z " data-centerx="16.328" data-centery="12.611"></path><path id="path7" visibility="visible" stroke="#000000" stroke-width="2" stroke-opacity="1" stroke-linecap="round" stroke-linejoin="round" stroke-dasharray="none" marker-start="none" marker-end="none" fill="#000000" fill-rule="evenodd" fill-opacity="1" data-name="curve" data-title="curve" deg="0" data-sw="2" data-grad="0" data-group="0" data-edit="1" filter="none" d="M11.778 23.722 C11.778 23.294 12.078 22.944 12.445 22.944 C12.812 22.944 13.112 23.294 13.112 23.722 C13.112 24.149 12.812 24.499 12.445 24.499 C12.078 24.499 11.778 24.149 11.778 23.722 Z " data-centerx="12.442" data-centery="23.72"></path><path id="path8" visibility="visible" stroke="#000000" stroke-width="2" stroke-opacity="1" stroke-linecap="round" stroke-linejoin="round" stroke-dasharray="none" marker-start="none" marker-end="none" fill="#000000" fill-rule="evenodd" fill-opacity="1" data-name="curve" data-title="curve" deg="343" data-sw="2" data-grad="0" data-group="0" data-edit="1" filter="none" d="M14.801 21.908 L23.948 20.289 L24.311 21.093 L15.386 23.822 L14.801 21.908 Z " data-centerx="19.554" data-centery="22.057"></path></g><g id="settings" visibility="hidden" data-dn0="primalDraw" data-dn1="#FAFAFA" data-dn2="#D2D2D2" data-dn3="18" data-dn4="#000000" data-dn5="#B3B3B3" data-dn6="1" data-dn7="1" data-dn8="2" data-dn9="round" data-dn10="round" data-dn11="none" data-dn12="none" data-dn13="none" data-dn14="evenodd" data-dn15="10" data-dn16="1" data-dn17="32" data-dn18="32" data-dn19="10" data-dn20="0" data-dn21="0" data-dn22="1" data-dn23="10" data-dn24="path5,path7,path8" data-dn25="2" data-dn26="url(#linear0)" data-dn27="url(#linear1)" data-dn28="url(#radial0)" data-dn29="url(#radial1)" data-dn30="#FF8000" data-dn31="#FFFF00" data-dn32="#000000" data-dn33="1" data-dn34="1" data-dn35="10" data-dn36="" data-dn37="0" data-dn38="65"></g></svg>